<svg width="53" height="53" viewBox="0 0 53 53" fill="none" xmlns="http://www.w3.org/2000/svg">
<path d="M26.3333 0C11.9704 0 0.333313 11.707 0.333313 26.1562C0.333313 40.6055 11.9704 52.3125 26.3333 52.3125C40.6962 52.3125 52.3333 40.6055 52.3333 26.1562C52.3333 11.707 40.6962 0 26.3333 0ZM26.3333 10.125C31.4285 10.125 35.5591 14.2805 35.5591 19.4062C35.5591 24.532 31.4285 28.6875 26.3333 28.6875C21.2382 28.6875 17.1075 24.532 17.1075 19.4062C17.1075 14.2805 21.2382 10.125 26.3333 10.125ZM26.3333 46.4062C20.1793 46.4062 14.6648 43.6008 10.9744 39.2133C12.9454 35.4797 16.8035 32.9062 21.3011 32.9062C21.5527 32.9062 21.8043 32.9484 22.0454 33.0223C23.4083 33.4652 24.8341 33.75 26.3333 33.75C27.8325 33.75 29.2688 33.4652 30.6212 33.0223C30.8623 32.9484 31.114 32.9062 31.3656 32.9062C35.8632 32.9062 39.7212 35.4797 41.6922 39.2133C38.0019 43.6008 32.4873 46.4062 26.3333 46.4062Z" fill="black"/>
</svg>
